<?xml version="1.0" encoding="UTF-8" standalone="no"?>
<!-- Created with Inkscape (http://www.inkscape.org/) -->

<svg
   xmlns:dc="http://purl.org/dc/elements/1.1/"
   xmlns:cc="http://creativecommons.org/ns#"
   xmlns:rdf="http://www.w3.org/1999/02/22-rdf-syntax-ns#"
   xmlns:svg="http://www.w3.org/2000/svg"
   xmlns="http://www.w3.org/2000/svg"
   xmlns:sodipodi="http://sodipodi.sourceforge.net/DTD/sodipodi-0.dtd"
   xmlns:inkscape="http://www.inkscape.org/namespaces/inkscape"
   version="1.1"
   width="250"
   height="320"
   id="svg2"
   inkscape:version="0.48.4 r9939"
   sodipodi:docname="glade-bg.svg">
  <sodipodi:namedview
     pagecolor="#ffffff"
     bordercolor="#666666"
     borderopacity="1"
     objecttolerance="10"
     gridtolerance="10"
     guidetolerance="10"
     inkscape:pageopacity="0"
     inkscape:pageshadow="2"
     inkscape:window-width="1920"
     inkscape:window-height="1141"
     id="namedview6"
     showgrid="false"
     fit-margin-top="0"
     fit-margin-left="0"
     fit-margin-right="0"
     fit-margin-bottom="0"
     inkscape:zoom="1"
     inkscape:cx="-185.00001"
     inkscape:cy="205"
     inkscape:window-x="0"
     inkscape:window-y="27"
     inkscape:window-maximized="1"
     inkscape:current-layer="svg2" />
  <metadata
     id="metadata11">
    <rdf:RDF>
      <cc:Work
         rdf:about="">
        <dc:format>image/svg+xml</dc:format>
        <dc:type
           rdf:resource="http://purl.org/dc/dcmitype/StillImage" />
        <dc:title />
      </cc:Work>
    </rdf:RDF>
  </metadata>
  <defs
     id="defs9" />
  <path
     d="m 123.69655,318.83915 c -13.55877,-2.65276 -30.532991,-10.31562 -42.204607,-19.05289 -7.173283,-5.36984 -10.543938,-8.24328 -8.358918,-7.12585 0.584628,0.29898 4.88961,2.71933 9.566621,5.37855 11.259392,6.40182 23.665644,11.80004 39.860924,17.34435 12.9684,4.43963 13.43608,5.86235 1.13598,3.45584 z m 19.06024,-3.11474 c -6.13859,-1.08734 -15.46605,-3.22146 -20.7277,-4.74251 -21.31301,-6.16116 -51.707394,-20.02691 -56.581456,-25.81216 -6.672695,-6.87036 -11.454648,-16.5446 -15.488672,-23.84531 -2.435118,-3.70678 -7.828389,-20.03577 -8.78209,-26.58912 l -0.758623,-5.21274 3.304013,2.34654 c 1.817207,1.2906 3.564268,2.76659 3.882373,3.27995 0.318106,0.51338 2.604649,2.50781 5.081202,4.43208 4.144834,3.22053 4.00165,2.95276 -1.801075,-3.3682 C 43.522477,228.19308 35.998221,216.9624 33.68614,210.54226 32.790743,208.05593 31.167873,198.51331 30.079749,189.33642 27.815569,170.24082 24.767722,156.96469 20.465785,147.45883 17.114317,140.05316 8.3111106,130.0809 3.2960869,128.009 L 0,126.64726 4.1449922,125.21595 c 9.1766768,-3.16879 23.4142708,-2.62865 37.5443208,1.42432 2.175352,0.62397 2.457852,0.44349 1.835928,-1.17301 -1.315449,-3.41911 -5.820906,-27.40552 -6.475968,-34.47713 l -0.638359,-6.8913 2.580363,4.79563 c 3.266972,6.07177 12.091865,14.35392 18.135878,17.02055 2.558702,1.12888 6.953282,2.3671 9.765742,2.75159 l 5.113585,0.69908 -3.873681,-4.51378 C 58.276521,93.36695 52.394362,76.305 52.421619,59.27962 c 0.01807,-11.25817 0.982089,-14.53913 2.984247,-10.15626 2.04336,4.47301 10.755196,13.05371 16.554405,16.3052 6.635664,3.72048 12.981923,5.80737 26.152266,8.59985 20.722163,4.39367 31.185403,12.78192 36.836863,29.53165 2.01145,5.9615 2.75299,7.04374 4.82626,7.04374 1.98342,0 3.18379,-1.47776 6.30712,-7.76463 4.99969,-10.06374 6.61493,-17.9473 6.0579,-29.56732 -0.37029,-7.72488 -1.03989,-10.61428 -3.84565,-16.59451 -1.86852,-3.98257 -4.87587,-9.10302 -6.68301,-11.3788 -1.80714,-2.27576 -2.85095,-4.13776 -2.31961,-4.13776 0.53134,0 4.28926,1.12734 8.35091,2.50521 20.82706,7.06536 37.39773,18.51446 47.76065,32.99908 11.56646,16.1669 15.76811,33.69787 10.54802,44.01061 -4.95328,9.78559 -19.11057,12.19451 -34.7168,5.90724 -3.62157,-1.459 -6.75499,-2.48288 -6.96317,-2.27524 -1.57053,1.56642 16.90321,10.65172 25.11727,12.35252 15.21331,3.15007 23.34627,-1.5496 27.2677,-15.75672 0.75885,-2.74928 1.42251,-4.01811 1.47476,-2.81962 0.0523,1.19847 2.49913,6.87435 5.43744,12.61303 4.79576,9.3664 5.32302,11.07718 5.15324,16.72059 -0.21947,7.29454 -0.77231,7.84315 -11.55857,11.46948 -16.55507,5.56581 -48.29174,-0.69764 -73.1068,-14.42814 -4.3034,-2.38113 -4.64829,-2.44969 -2.41425,-0.47987 7.64301,6.73905 29.81732,17.0904 45.75822,21.36071 7.15518,1.91676 11.91895,2.4302 22.89481,2.46762 13.12181,0.0448 14.16258,-0.10947 19.54913,-2.89525 3.12922,-1.61836 5.84545,-2.78693 6.03607,-2.59678 0.19063,0.19014 2.26612,4.37678 4.6122,9.30367 l 4.2656,8.95799 -2.46679,2.18906 c -1.35675,1.20398 -6.48938,3.53906 -11.40585,5.18907 -7.95369,2.66932 -10.40364,2.99638 -22.22601,2.967 -23.0882,-0.0573 -47.48244,-6.64472 -74.14134,-20.02088 -8.33094,-4.18007 -15.14715,-7.47805 -15.14715,-7.32884 0,0.72746 12.82989,8.62613 21.54902,13.26655 29.0484,15.45993 66.15611,24.51869 87.47924,21.35551 9.72793,-1.4431 15.93167,-4.07969 15.73241,-6.68632 -0.0752,-0.98516 0.48222,-2.02819 1.23894,-2.31782 1.38084,-0.5285 2.78057,4.02901 4.23596,13.79222 0.59017,3.95894 0.36395,4.58142 -2.34236,6.4453 -3.71416,2.55801 -13.11887,6.26422 -19.47147,7.67334 -7.39618,1.64061 -30.33098,1.31409 -41.53379,-0.5913 -24.85382,-4.22717 -54.86528,-15.34523 -78.31476,-29.01255 -8.11215,-4.72809 -6.83683,-2.93875 1.87522,2.63105 44.90572,28.70911 105.7675,43.3934 133.94252,32.31669 2.95277,-1.16084 5.64585,-2.11063 5.98463,-2.11063 0.87846,0 -0.72728,13.96388 -1.84686,16.06071 -1.23186,2.30707 -14.7451,7.84016 -22.69384,9.29213 -9.07005,1.6568 -30.30871,1.41059 -42.04254,-0.4874 -28.48976,-4.60827 -60.716,-16.1673 -86.380178,-30.98316 -5.115484,-2.95317 -9.300888,-5.1527 -9.300888,-4.88786 0,1.25069 20.986546,13.80414 32.397116,19.37888 45.35084,22.15655 92.52657,31.01317 121.46609,22.80363 3.25296,-0.9228 3.06488,0.2971 -1.4484,9.39461 -4.18129,8.4283 -5.88913,9.6209 -18.68721,13.04948 -31.49552,8.43758 -91.56924,-5.39416 -137.182201,-31.58568 -5.700122,-3.27308 -10.363849,-5.7426 -10.363849,-5.48782 0,1.09817 18.988713,12.66976 30.07108,18.32511 33.436,17.06247 72.02516,27.97332 99.07835,28.01382 7.01551,0.0106 15.19082,-0.17979 18.16733,-0.42286 l 5.41184,-0.44197 -3.79946,4.53293 c -7.25692,8.65785 -12.71296,10.90078 -30.4093,12.50104 -29.21535,2.6419 -81.53722,-12.05066 -117.701364,-33.05189 -5.419492,-3.1472 -8.447696,-4.55748 -6.729356,-3.13393 1.71834,1.42351 8.114689,5.55324 14.214101,9.17713 30.369959,18.04394 75.304329,32.98893 99.852069,33.21041 5.40739,0.0488 9.83196,0.44649 9.83235,0.88383 4e-4,0.43733 1.07696,0.81671 2.39238,0.84308 3.57245,0.0716 -5.29186,4.58355 -15.46777,7.87319 -10.08974,3.26179 -19.61319,3.40339 -35.81996,0.53264 z m 87.15738,-192.42947 c -0.65659,-1.73215 -2.54346,-5.29626 -4.1931,-7.92025 -6.17252,-9.81842 -6.43187,-16.79003 -0.81992,-22.04087 l 2.36081,-2.20889 0.23242,3.23364 c 0.12782,1.77851 1.76716,5.61909 3.64292,8.53463 4.49352,6.98438 5.36208,15.05804 2.16222,20.09876 l -2.19157,3.45235 z M 123.87188,73.32695 C 119.60531,69.00703 114.6886,66.46067 100.26233,61.09955 84.688709,55.31205 70.765125,48.40309 65.419079,43.81016 56.557214,36.19669 52.316764,25.70948 52.317986,11.40939 c 9.76e-4,-12.581365 0.605967,-13.724192 4.457401,-8.42125 5.363829,7.38532 9.469864,9.79919 30.707567,18.05241 13.530226,5.258 19.295166,8.83241 26.499916,16.43059 7.39686,7.8008 11.50623,16.84122 12.92913,28.44351 0.62098,5.0637 0.97221,9.59394 0.78049,10.06722 -0.19173,0.47327 -1.91099,-0.72144 -3.82061,-2.65492 z"
     id="path3823"
     style="fill:#f2f2f2;fill-opacity:1"
     inkscape:connector-curvature="0" />
</svg>
